<?xml version="1.0" standalone="no"?>
<!DOCTYPE svg PUBLIC "-//W3C//DTD SVG 20010904//EN"
 "http://www.w3.org/TR/2001/REC-SVG-20010904/DTD/svg10.dtd">
<svg version="1.0" xmlns="http://www.w3.org/2000/svg"
 width="2048.000000pt" height="2048.000000pt" viewBox="0 0 2048.000000 2048.000000"
 preserveAspectRatio="xMidYMid meet">

<g transform="translate(0.000000,2048.000000) scale(0.100000,-0.100000)"
fill="#000000" stroke="none">
<path d="M8334 13904 c-9 -4 -9 -13 -1 -34 6 -17 14 -30 17 -30 3 0 4 -56 2
-124 l-3 -124 28 -10 c24 -9 14 -11 -57 -13 l-85 -3 85 -6 c47 -3 70 -7 52 -8
-21 -1 -31 -6 -26 -13 3 -6 20 -9 37 -6 37 5 112 -30 148 -70 15 -15 39 -50
53 -78 15 -27 23 -39 19 -25 -4 14 -7 37 -8 53 0 15 -3 27 -7 27 -5 0 -8 11
-8 24 0 14 -4 27 -9 30 -5 3 -11 20 -14 38 -6 42 -32 113 -57 159 -11 20 -20
44 -20 53 0 9 -6 16 -13 16 -8 0 -22 18 -33 40 -10 21 -29 45 -42 51 -12 7
-25 23 -28 36 -6 23 -10 25 -30 17z"/>
<path d="M9075 13786 c10 -14 19 -26 22 -26 7 0 -17 39 -28 46 -6 3 -3 -5 6
-20z"/>
<path d="M9166 13617 c3 -10 9 -15 12 -12 3 3 0 11 -7 18 -10 9 -11 8 -5 -6z"/>
<path d="M9130 13612 c0 -5 7 -15 15 -22 8 -7 15 -8 15 -2 0 5 -7 15 -15 22
-8 7 -15 8 -15 2z"/>
<path d="M9201 13524 c0 -11 3 -14 6 -6 3 7 2 16 -1 19 -3 4 -6 -2 -5 -13z"/>
<path d="M9211 13474 c0 -11 3 -14 6 -6 3 7 2 16 -1 19 -3 4 -6 -2 -5 -13z"/>
<path d="M9770 13470 l-255 -5 1 -45 c0 -25 2 -166 3 -313 l2 -269 322 4 c177
1 308 0 292 -3 -25 -5 -20 -7 30 -14 225 -30 451 -206 559 -435 56 -118 70
-187 70 -335 0 -105 -4 -145 -22 -208 -12 -43 -19 -83 -16 -89 4 -6 3 -8 -3
-5 -11 7 -44 -56 -39 -75 1 -7 1 -9 -2 -5 -2 4 -16 -11 -31 -35 -62 -96 -203
-232 -267 -258 -11 -4 -36 -18 -55 -30 -33 -21 -33 -22 -6 -17 15 2 27 1 27
-3 0 -4 -15 -10 -34 -12 -19 -2 -32 0 -30 4 7 11 5 11 -61 -12 -32 -11 -72
-21 -89 -21 l-31 -1 30 -8 c23 -6 25 -8 10 -10 -11 -2 -27 -4 -35 -5 -8 -1
-25 -3 -37 -4 -13 0 -23 -5 -23 -9 0 -5 13 -7 28 -4 19 2 33 -2 43 -15 13 -16
12 -17 -3 -5 -12 10 -22 11 -36 3 -11 -6 -22 -7 -26 -4 -3 3 -6 -1 -6 -10 0
-13 9 -17 40 -17 l40 0 0 -40 0 -40 40 0 40 0 0 -40 0 -40 40 0 40 0 0 -40 0
-40 40 0 40 0 0 -40 0 -40 40 0 c39 0 47 -9 41 -43 -1 -5 2 -7 6 -5 49 23 62
32 57 40 -3 4 0 8 6 8 7 0 10 -7 6 -15 -3 -8 1 -20 7 -27 7 -7 16 -21 20 -30
4 -12 17 -17 47 -16 22 0 43 5 46 10 3 5 17 14 31 19 17 6 23 14 19 25 -4 9 8
27 31 47 20 18 37 30 38 27 3 -10 35 29 35 44 0 8 10 23 23 33 12 10 30 34 40
53 34 66 79 145 87 150 4 3 10 16 14 30 4 14 11 34 15 45 17 43 50 163 61 220
13 68 8 331 -8 410 -21 108 -71 255 -87 255 -6 0 -16 25 -23 56 -9 37 -23 66
-43 85 -16 15 -29 33 -29 38 0 6 -11 27 -25 47 -14 20 -25 43 -25 50 0 8 -8
14 -17 14 -19 0 -73 57 -73 77 0 18 20 27 33 14 15 -15 27 -14 27 4 0 13 29
15 200 15 l200 0 1 -22 c0 -15 5 -10 13 17 7 26 14 36 19 28 5 -7 5 -13 0 -14
-4 0 1 -4 11 -8 23 -9 66 -2 66 10 0 5 -5 9 -11 9 -8 0 -10 17 -7 49 5 52 -4
86 -15 56 -4 -9 -3 -13 3 -10 6 3 10 1 10 -5 0 -27 -25 -1 -26 27 -1 53 -44
129 -44 78 0 -8 5 -15 10 -15 6 0 10 -7 10 -16 0 -13 -3 -14 -13 -5 -8 6 -17
7 -22 3 -4 -4 -5 8 -1 26 5 28 3 35 -14 39 -23 6 -27 23 -6 23 8 0 16 -7 20
-15 3 -8 11 -15 17 -15 6 0 0 15 -15 34 -14 19 -26 39 -26 45 0 6 -5 11 -11
11 -7 0 -9 -10 -5 -25 4 -16 2 -25 -5 -25 -8 0 -10 12 -6 33 4 27 0 40 -20 63
-14 16 -36 42 -49 57 -13 16 -28 26 -33 23 -5 -3 -8 2 -7 12 1 13 -5 16 -24
14 -20 -2 -22 -1 -10 7 13 9 9 16 -20 44 -232 220 -576 365 -895 379 -38 2
-185 1 -325 -2z m-177 -17 c-7 -2 -19 -2 -25 0 -7 3 -2 5 12 5 14 0 19 -2 13
-5z m335 0 c-60 -2 -156 -2 -215 0 -60 1 -11 3 107 3 118 0 167 -2 108 -3z
m165 0 c-7 -2 -19 -2 -25 0 -7 3 -2 5 12 5 14 0 19 -2 13 -5z m304 -49 c-3 -3
-12 -4 -19 -1 -8 3 -5 6 6 6 11 1 17 -2 13 -5z m279 -121 c-6 -6 -36 9 -36 18
0 5 9 4 20 -3 10 -7 18 -14 16 -15z m317 -225 c-5 -10 -33 10 -33 23 0 5 9 4
19 -3 11 -7 17 -16 14 -20z m77 -68 c0 -5 -5 -10 -11 -10 -5 0 -7 5 -4 10 3 6
8 10 11 10 2 0 4 -4 4 -10z m57 -152 c-2 -13 -4 -5 -4 17 -1 22 1 32 4 23 2
-10 2 -28 0 -40z m-940 36 c-3 -3 -12 -4 -19 -1 -8 3 -5 6 6 6 11 1 17 -2 13
-5z m-122 -14 c-28 -12 -65 -12 -65 0 0 6 19 10 43 9 32 0 37 -2 22 -9z m328
-67 c-24 -8 -13 -23 15 -23 19 0 38 -10 55 -30 15 -16 34 -30 42 -30 8 0 15
-4 15 -10 0 -5 7 -10 15 -10 8 0 15 5 15 10 0 6 -5 10 -12 10 -6 0 -9 2 -6 5
3 3 12 3 21 -1 15 -5 15 -8 1 -30 l-16 -24 -38 30 c-21 17 -43 30 -49 30 -6 0
-11 7 -11 15 0 8 -12 18 -26 21 -14 4 -41 14 -59 23 l-34 16 42 1 c23 1 36 -1
30 -3z m822 -93 c-6 -9 -9 -9 -16 1 -10 17 0 34 13 21 6 -6 7 -16 3 -22z m35
-55 c-7 -8 -20 -15 -29 -15 -11 1 -8 5 9 15 32 18 35 18 20 0z m-622 -12 c-2
-9 -8 -18 -15 -20 -7 -3 -9 3 -6 16 6 25 26 28 21 4z m34 -18 c3 -14 2 -25 -2
-25 -9 0 -20 25 -20 46 0 23 17 7 22 -21z m61 12 c3 -8 2 -19 -3 -26 -5 -10
-9 -8 -14 4 -3 9 -6 21 -6 26 0 14 17 11 23 -4z m512 -25 c-3 -3 -11 0 -18 7
-9 10 -8 11 6 5 10 -3 15 -9 12 -12z m-519 -61 c0 -11 -5 -17 -13 -14 -17 6
-17 20 0 26 6 3 12 6 12 6 1 1 1 -7 1 -18z m-92 -1019 c-7 -4 -13 -16 -15 -27
-3 -12 -14 -21 -27 -23 -14 -2 -22 -9 -19 -16 3 -6 -3 -13 -13 -13 -17 -2 -18
0 -2 18 9 10 22 19 29 19 8 0 18 11 23 25 5 14 15 25 22 25 9 0 10 -2 2 -8z
m-329 -221 c-6 -5 -28 -12 -50 -15 l-40 -5 40 13 c49 18 62 19 50 7z m85 -11
c20 -7 16 -9 -20 -7 -38 2 -45 -1 -42 -15 2 -10 -3 -18 -9 -18 -7 0 -20 -7
-28 -14 -19 -18 -44 -6 -36 16 4 10 15 13 37 10 23 -4 29 -1 23 8 -15 25 27
36 75 20z m276 -431 c-27 -22 -13 -36 19 -19 14 7 28 11 31 8 3 -4 -4 -9 -15
-13 -12 -3 -21 -13 -21 -21 0 -19 -19 -18 -26 1 -8 21 -44 19 -45 -2 0 -15 -2
-15 -8 2 -13 32 13 61 52 61 34 0 34 0 13 -17z"/>
<path d="M9228 13195 c3 -137 2 -247 -2 -244 -3 3 -6 89 -6 192 -1 103 -6 189
-11 192 -5 4 -10 -25 -11 -67 -1 -48 -3 -58 -5 -30 -6 57 -33 59 -33 2 0 -29
-4 -40 -15 -40 -11 0 -15 11 -15 40 l0 40 -125 0 -125 0 0 -40 0 -40 -124 0
-125 0 -4 43 c-2 23 -5 -32 -7 -123 l-4 -165 -6 165 c-3 91 -6 -88 -7 -400 -1
-311 1 -559 4 -553 6 17 33 -9 33 -31 0 -13 58 -113 87 -151 5 -5 19 -27 33
-47 14 -21 28 -38 33 -38 4 0 7 -4 7 -9 0 -14 182 -211 195 -211 4 0 27 -18
52 -40 25 -22 49 -40 54 -40 4 0 23 -13 41 -30 18 -16 38 -30 45 -30 7 0 13
-4 13 -10 0 -5 4 -10 9 -10 5 0 37 -16 71 -35 34 -19 73 -38 86 -41 13 -3 24
-9 24 -14 0 -4 33 -18 73 -31 39 -13 74 -27 75 -31 2 -5 16 -8 32 -8 16 0 30
-4 32 -9 2 -6 30 -14 63 -20 33 -5 81 -19 108 -30 26 -11 47 -17 47 -13 0 4
-20 15 -43 25 -97 42 -177 81 -177 87 0 4 -11 12 -24 18 -65 29 -208 193 -259
297 -23 48 -55 156 -66 225 -7 40 -11 321 -12 740 0 371 -4 695 -7 720 -4 25
-6 -67 -4 -205z m-591 -137 c-2 -13 -4 -3 -4 22 0 25 2 35 4 23 2 -13 2 -33 0
-45z m-20 -215 c-2 -21 -4 -4 -4 37 0 41 2 58 4 38 2 -21 2 -55 0 -75z"/>
<path d="M8611 13404 c0 -11 3 -14 6 -6 3 7 2 16 -1 19 -3 4 -6 -2 -5 -13z"/>
<path d="M8620 13375 c0 -5 5 -17 10 -25 5 -8 10 -10 10 -5 0 6 -5 17 -10 25
-5 8 -10 11 -10 5z"/>
<path d="M8610 13304 c0 -14 3 -14 15 -4 8 7 15 14 15 16 0 2 -7 4 -15 4 -8 0
-15 -7 -15 -16z"/>
<path d="M11311 12615 c0 -11 6 -29 14 -39 20 -26 20 0 0 34 -13 22 -14 23
-14 5z"/>
<path d="M11366 12475 c4 -22 10 -47 15 -55 10 -18 0 46 -12 75 -6 13 -6 5 -3
-20z"/>
<path d="M11367 12375 c3 -27 7 -52 9 -54 7 -8 2 54 -6 79 -6 17 -7 9 -3 -25z"/>
<path d="M11391 12370 c0 -8 4 -24 9 -35 l9 -20 0 20 c0 11 -4 27 -9 35 -9 13
-10 13 -9 0z"/>
<path d="M11385 12289 c-4 -6 -5 -12 -2 -15 2 -3 7 2 10 11 7 17 1 20 -8 4z"/>
<path d="M11408 12260 c-3 -16 -1 -35 4 -42 4 -8 8 4 8 30 0 49 -6 55 -12 12z"/>
<path d="M11370 12229 c0 -5 5 -7 10 -4 6 3 10 8 10 11 0 2 -4 4 -10 4 -5 0
-10 -5 -10 -11z"/>
<path d="M11390 12170 c0 -5 5 -10 10 -10 6 0 10 5 10 10 0 6 -4 10 -10 10 -5
0 -10 -4 -10 -10z"/>
<path d="M11381 11684 c0 -11 3 -14 6 -6 3 7 2 16 -1 19 -3 4 -6 -2 -5 -13z"/>
<path d="M9680 11310 c0 -5 5 -10 11 -10 5 0 7 5 4 10 -3 6 -8 10 -11 10 -2 0
-4 -4 -4 -10z"/>
<path d="M9718 11293 c7 -3 16 -2 19 1 4 3 -2 6 -13 5 -11 0 -14 -3 -6 -6z"/>
<path d="M9853 11283 c9 -2 23 -2 30 0 6 3 -1 5 -18 5 -16 0 -22 -2 -12 -5z"/>
<path d="M9920 11271 c0 -5 18 -8 40 -8 22 1 40 5 40 9 0 4 -18 8 -40 8 -22 0
-40 -4 -40 -9z"/>
<path d="M9145 10940 c3 -5 8 -10 11 -10 2 0 4 5 4 10 0 6 -5 10 -11 10 -5 0
-7 -4 -4 -10z"/>
<path d="M10520 10799 c-7 -12 -18 -18 -26 -15 -10 4 -14 -2 -13 -22 1 -18 3
-21 6 -9 4 14 11 17 26 13 12 -3 29 -6 37 -7 8 0 4 -5 -10 -9 -14 -5 -43 -16
-65 -25 -35 -14 -36 -15 -9 -11 41 6 149 54 141 63 -4 3 -13 0 -22 -7 -9 -7
-19 -9 -23 -5 -4 4 -1 10 6 12 9 4 6 11 -9 24 -27 23 -26 23 -39 -2z m37 -15
c-3 -3 -12 -4 -19 -1 -8 3 -5 6 6 6 11 1 17 -2 13 -5z"/>
<path d="M10358 10713 c6 -2 18 -2 25 0 6 3 1 5 -13 5 -14 0 -19 -2 -12 -5z"/>
<path d="M9818 10703 c7 -3 16 -2 19 1 4 3 -2 6 -13 5 -11 0 -14 -3 -6 -6z"/>
<path d="M10300 10700 c-21 -7 -21 -8 -5 -9 11 0 27 4 35 9 18 11 5 11 -30 0z"/>
<path d="M10375 10695 c-16 -7 -23 -14 -15 -14 8 0 29 6 45 14 17 7 23 14 15
14 -8 0 -28 -6 -45 -14z"/>
<path d="M10220 10690 c0 -5 10 -10 23 -10 18 0 19 2 7 10 -19 13 -30 13 -30
0z"/>
<path d="M10298 10673 c6 -2 18 -2 25 0 6 3 1 5 -13 5 -14 0 -19 -2 -12 -5z"/>
<path d="M9495 10440 c-18 -8 -18 -9 -2 -9 10 -1 16 -5 13 -10 -4 -5 0 -12 6
-14 7 -3 0 -4 -17 -3 -16 2 -24 1 -17 -1 16 -6 18 -368 1 -379 -8 -4 -7 -9 2
-15 11 -7 9 -9 -6 -10 -11 -1 -4 -5 15 -9 l35 -7 -31 -2 c-20 -1 -31 -6 -31
-16 0 -36 155 -26 221 15 139 85 153 285 30 402 -59 55 -162 83 -219 58z m40
-480 c18 -8 18 -9 -5 -9 -14 0 -32 4 -40 9 -12 8 -12 10 5 9 11 0 29 -4 40 -9z"/>
<path d="M10423 10443 c4 -3 -5 -15 -20 -25 -16 -10 -22 -18 -15 -18 9 0 12
-42 12 -176 0 -145 -3 -178 -15 -191 -14 -14 -14 -17 2 -28 16 -12 14 -13 -12
-9 -17 2 -23 1 -15 -3 8 -3 21 -12 28 -20 11 -11 11 -13 -2 -13 -9 0 -16 5
-16 10 0 6 -12 10 -27 10 -28 -1 -28 -1 6 -15 18 -8 45 -12 60 -9 21 5 23 3
11 -6 -12 -9 -1 -10 48 -7 167 13 270 172 220 339 -17 58 -97 134 -160 153
-53 15 -117 20 -105 8z"/>
<path d="M10355 10425 c-24 -11 -26 -14 -9 -15 11 0 29 7 40 15 24 18 9 18
-31 0z"/>
<path d="M10299 10353 c-13 -16 -12 -17 4 -4 9 7 17 15 17 17 0 8 -8 3 -21
-13z"/>
<path d="M3824 8351 c-2 -2 -4 -293 -4 -646 0 -520 3 -658 15 -726 30 -171
105 -311 234 -439 128 -126 261 -196 429 -225 384 -67 752 128 908 482 91 205
84 494 -16 694 -151 298 -451 473 -785 456 -129 -7 -199 -24 -314 -78 -46 -21
-85 -39 -87 -39 -2 0 -5 117 -6 261 l-3 261 -183 1 c-101 1 -186 0 -188 -2z
m1018 -823 c175 -87 282 -287 250 -468 -42 -236 -237 -391 -476 -378 -72 4
-96 10 -158 41 -120 59 -196 147 -239 275 -18 54 -21 80 -17 153 7 116 50 211
133 293 97 96 178 126 331 123 94 -2 106 -5 176 -39z"/>
<path d="M5614 8351 c-2 -2 -4 -344 -4 -760 0 -628 3 -767 15 -818 59 -250
276 -443 528 -469 l67 -7 0 192 0 191 -25 0 c-67 0 -164 74 -189 143 -12 35
-16 161 -20 781 -3 406 -7 741 -9 743 -5 5 -358 9 -363 4z"/>
<path d="M6903 7935 c-155 -35 -297 -116 -414 -234 -313 -318 -318 -816 -11
-1143 245 -261 645 -332 962 -173 38 19 75 35 81 35 7 0 10 -21 7 -60 l-3 -60
188 0 187 0 0 466 c0 507 -2 534 -60 675 -51 127 -176 284 -284 358 -66 46
-196 107 -266 126 -88 23 -303 29 -387 10z m360 -402 c178 -84 286 -279 257
-467 -37 -239 -230 -397 -473 -384 -272 14 -468 278 -406 547 27 120 125 243
233 296 80 39 108 44 221 42 89 -2 108 -6 168 -34z"/>
<path d="M8726 7940 c-211 -38 -418 -172 -536 -346 -73 -109 -130 -262 -130
-349 0 -108 65 -217 161 -270 l54 -30 275 -6 c299 -7 326 -12 446 -70 96 -47
206 -158 257 -259 40 -80 67 -185 67 -262 l0 -48 190 0 190 0 0 33 c-1 185
-60 383 -164 542 -49 74 -189 224 -233 248 -10 6 -23 16 -30 23 -26 26 -195
105 -279 130 -82 25 -105 28 -306 32 -166 3 -218 7 -218 17 0 16 65 102 105
138 16 15 63 44 103 64 63 31 85 37 159 41 148 8 252 -28 347 -122 61 -59 112
-151 128 -232 6 -30 16 -54 22 -54 29 0 324 22 342 25 20 4 20 8 12 71 -41
303 -297 587 -603 669 -70 19 -288 28 -359 15z"/>
<path d="M12578 7753 c12 -2 32 -2 45 0 12 2 2 4 -23 4 -25 0 -35 -2 -22 -4z"/>
<path d="M13550 7390 c-4 -259 -9 -381 -17 -395 -6 -11 -23 -45 -37 -76 -50
-107 -168 -201 -296 -234 -199 -52 -418 50 -509 237 -39 80 -51 144 -51 277 0
58 -3 136 -7 174 -5 57 -9 67 -25 67 -22 0 -68 -43 -68 -63 0 -9 -10 -13 -27
-12 -22 1 -28 6 -30 25 -1 15 0 18 3 8 5 -16 8 -15 30 7 13 13 24 27 24 30 0
3 -54 5 -120 5 l-120 0 -2 -122 c-2 -104 -3 -92 -8 77 -5 165 -6 145 -5 -115
2 -353 5 -370 76 -512 195 -391 637 -564 1034 -403 113 46 199 104 285 194
119 124 189 260 221 431 24 127 7 450 -24 450 -4 0 -5 -9 -2 -20 7 -23 -2 -60
-16 -60 -5 0 -9 18 -9 40 0 36 -2 40 -25 40 -25 0 -33 -14 -15 -25 6 -3 10 0
10 7 0 20 20 -13 20 -33 0 -26 -31 -33 -37 -9 -3 11 -10 17 -16 13 -6 -4 -8 3
-5 19 4 24 4 24 -83 27 l-88 2 -8 -38 -7 -38 -7 40 c-5 30 -7 19 -8 -44 -2
-166 -15 -65 -21 167 l-6 237 -4 -375z m347 -92 c-2 -13 -4 -3 -4 22 0 25 2
35 4 23 2 -13 2 -33 0 -45z m-1590 -280 c-3 -8 -6 -5 -6 6 -1 11 2 17 5 13 3
-3 4 -12 1 -19z"/>
<path d="M14289 7724 l-24 -27 28 18 c15 9 27 21 27 26 0 14 -5 11 -31 -17z"/>
<path d="M15360 7743 c0 -5 13 -17 28 -27 l27 -19 -24 26 c-26 28 -31 32 -31
20z"/>
<path d="M11200 7737 c0 -2 15 -16 33 -33 l32 -29 -29 33 c-28 30 -36 37 -36
29z"/>
<path d="M11991 7570 c-1 -63 -9 -155 -16 -205 l-14 -90 5 75 c2 41 0 89 -4
105 -9 29 -9 28 -16 -20 -11 -77 -14 -84 -15 -37 l-1 42 -125 0 -124 0 -4 -82
c-1 -46 -5 7 -7 117 l-4 200 -6 -240 c-5 -225 -6 -230 -8 -77 -1 109 -6 162
-13 162 -8 0 -10 -103 -6 -352 3 -325 5 -359 25 -425 70 -234 281 -410 525
-437 l57 -6 0 184 0 183 -37 7 c-64 10 -139 60 -170 113 l-28 48 -5 425 c-3
234 -7 373 -9 310z"/>
<path d="M14210 7639 c0 -5 5 -7 10 -4 6 3 10 8 10 11 0 2 -4 4 -10 4 -5 0
-10 -5 -10 -11z"/>
<path d="M14185 7610 c-3 -5 -1 -10 4 -10 6 0 11 5 11 10 0 6 -2 10 -4 10 -3
0 -8 -4 -11 -10z"/>
<path d="M10438 7593 c7 -3 16 -2 19 1 4 3 -2 6 -13 5 -11 0 -14 -3 -6 -6z"/>
<path d="M10518 7593 c7 -3 16 -2 19 1 4 3 -2 6 -13 5 -11 0 -14 -3 -6 -6z"/>
<path d="M10631 7589 c13 -8 97 -13 88 -5 -2 2 -26 6 -53 9 -30 3 -43 1 -35
-4z"/>
<path d="M11324 7584 c3 -9 6 -18 6 -20 0 -2 4 -4 9 -4 5 0 7 9 4 20 -3 11
-10 20 -15 20 -6 0 -7 -7 -4 -16z"/>
<path d="M10410 7575 c7 -8 20 -14 29 -14 13 1 13 2 -1 6 -10 2 -18 9 -18 14
0 5 -5 9 -11 9 -8 0 -8 -5 1 -15z"/>
<path d="M10475 7579 c-4 -6 -4 -13 -1 -16 6 -6 -15 -20 -69 -47 -16 -9 -24
-15 -17 -16 7 0 36 13 65 30 29 16 46 30 38 30 -8 0 -11 6 -7 15 6 17 0 20 -9
4z"/>
<path d="M10760 7580 c8 -5 22 -10 30 -10 13 0 13 1 0 10 -8 5 -22 10 -30 10
-13 0 -13 -1 0 -10z"/>
<path d="M10865 7580 c-3 -5 -1 -10 4 -10 6 0 11 5 11 10 0 6 -2 10 -4 10 -3
0 -8 -4 -11 -10z"/>
<path d="M14668 7583 c7 -3 16 -2 19 1 4 3 -2 6 -13 5 -11 0 -14 -3 -6 -6z"/>
<path d="M14818 7583 c12 -2 32 -2 45 0 12 2 2 4 -23 4 -25 0 -35 -2 -22 -4z"/>
<path d="M14985 7580 c-4 -6 -16 -8 -28 -5 -16 4 -18 3 -7 -3 8 -5 29 -12 45
-16 25 -5 27 -4 11 5 -15 9 -16 13 -5 20 9 6 10 9 2 9 -6 0 -15 -5 -18 -10z"/>
<path d="M13582 7550 c0 -19 2 -27 5 -17 2 9 2 25 0 35 -3 9 -5 1 -5 -18z"/>
<path d="M14695 7570 c-7 -12 12 -12 40 0 18 8 17 9 -7 9 -15 1 -30 -3 -33 -9z"/>
<path d="M10820 7560 c19 -13 30 -13 30 0 0 6 -10 10 -22 10 -19 0 -20 -2 -8
-10z"/>
<path d="M11300 7552 c6 -13 14 -21 18 -18 3 4 -2 14 -12 24 -18 16 -18 16 -6
-6z"/>
<path d="M14137 7541 c-24 -42 -21 -52 4 -13 12 18 20 35 17 37 -2 2 -12 -9
-21 -24z"/>
<path d="M14600 7555 c-10 -12 -10 -15 4 -15 9 0 16 7 16 15 0 8 -2 15 -4 15
-2 0 -9 -7 -16 -15z"/>
<path d="M15072 7549 c2 -7 10 -15 17 -17 8 -3 12 1 9 9 -2 7 -10 15 -17 17
-8 3 -12 -1 -9 -9z"/>
<path d="M10865 7540 c3 -5 8 -10 11 -10 2 0 4 5 4 10 0 6 -5 10 -11 10 -5 0
-7 -4 -4 -10z"/>
<path d="M11357 7536 c-3 -8 -2 -18 3 -21 13 -8 20 9 11 24 -6 10 -10 9 -14
-3z"/>
<path d="M10910 7516 c0 -2 7 -7 16 -10 8 -3 12 -2 9 4 -6 10 -25 14 -25 6z"/>
<path d="M10954 7500 c0 -13 4 -16 10 -10 7 7 7 13 0 20 -6 6 -10 3 -10 -10z"/>
<path d="M14506 7502 c-9 -11 -14 -26 -11 -34 4 -9 -1 -18 -10 -22 -9 -3 -13
-11 -10 -17 5 -7 20 1 41 22 36 35 48 65 14 34 -11 -10 -23 -15 -28 -11 -4 4
2 14 12 22 11 7 17 16 14 19 -2 3 -12 -3 -22 -13z"/>
<path d="M14557 7502 c4 -10 9 -10 22 0 9 7 17 13 19 14 2 1 -8 1 -21 0 -15 0
-23 -6 -20 -14z"/>
<path d="M15150 7515 c0 -4 8 -14 17 -21 10 -7 15 -16 11 -20 -5 -4 -17 1 -28
11 -28 25 -24 6 5 -28 14 -16 30 -25 37 -21 7 4 8 3 4 -4 -4 -7 6 -29 23 -49
16 -21 37 -63 47 -93 10 -30 28 -65 41 -77 12 -12 19 -24 14 -28 -5 -3 -11 1
-14 7 -2 7 -7 11 -10 8 -3 -3 -2 -11 2 -18 7 -11 39 -11 172 -2 90 6 169 13
175 15 8 2 9 20 3 57 -10 62 -47 182 -48 155 -1 -10 4 -27 9 -38 6 -10 7 -19
2 -19 -16 0 -33 83 -19 92 8 5 9 8 1 8 -7 0 -15 10 -19 23 -4 14 -8 17 -12 9
-3 -7 1 -19 7 -27 7 -9 8 -15 2 -15 -5 0 -17 15 -26 33 -8 17 -16 26 -16 19 0
-7 5 -22 10 -33 7 -11 7 -19 1 -19 -5 0 -12 6 -14 13 -4 10 -6 10 -6 0 -1 -9
-24 -13 -80 -13 -54 0 -81 -4 -84 -12 -4 -10 -6 -10 -6 0 -1 6 -12 12 -26 12
-21 0 -25 -5 -25 -28 0 -25 -34 -72 -44 -61 -9 11 -40 75 -38 81 1 4 -8 10
-19 13 -13 5 -18 12 -14 24 3 11 -3 25 -15 36 -11 10 -20 15 -20 10z m127
-197 c-3 -8 -6 -5 -6 6 -1 11 2 17 5 13 3 -3 4 -12 1 -19z m340 -8 c-5 -22 -3
-30 8 -30 8 0 15 -5 15 -10 0 -7 -7 -7 -21 0 -12 7 -18 17 -15 27 3 8 6 21 6
29 0 8 3 14 6 14 4 0 4 -13 1 -30z m-277 -40 c0 -5 -6 -10 -14 -10 -8 0 -18 5
-21 10 -3 6 3 10 14 10 12 0 21 -4 21 -10z m297 -57 c-3 -10 -5 -4 -5 12 0 17
2 24 5 18 2 -7 2 -21 0 -30z"/>
<path d="M10996 7502 c18 -12 28 -54 14 -62 -18 -11 11 -19 35 -9 18 7 19 8 1
8 -14 1 -17 6 -13 23 6 21 -15 47 -38 48 -6 0 -5 -4 1 -8z"/>
<path d="M11373 7495 c-3 -9 -3 -18 -1 -21 3 -3 8 4 11 16 6 23 -1 27 -10 5z"/>
<path d="M14141 7484 c0 -11 3 -14 6 -6 3 7 2 16 -1 19 -3 4 -6 -2 -5 -13z"/>
<path d="M10320 7481 c0 -15 33 -22 44 -10 8 9 7 10 -6 6 -10 -4 -18 -2 -18 3
0 6 -4 10 -10 10 -5 0 -10 -4 -10 -9z"/>
<path d="M14105 7473 c-4 -13 -12 -23 -18 -23 -6 0 -7 -3 -4 -6 4 -4 13 -1 22
6 12 10 15 10 15 -4 0 -9 7 -16 15 -16 16 0 19 -9 9 -34 -3 -8 -12 -12 -20 -9
-9 3 -14 0 -12 -8 2 -7 -4 -13 -12 -14 -8 0 -17 -11 -21 -25 -6 -23 -7 -22 -9
10 l-2 35 -15 -45 c-19 -58 -13 -173 12 -220 28 -56 76 -112 91 -106 8 3 11 0
8 -8 -5 -12 22 -28 81 -49 17 -5 156 -13 310 -17 313 -8 320 -9 454 -89 69
-41 164 -134 184 -180 6 -14 14 -28 18 -31 32 -25 79 -181 79 -262 0 -82 -10
-78 191 -78 l179 0 0 59 c0 232 -114 495 -286 661 -83 81 -104 100 -110 100
-2 0 -32 19 -66 42 -45 31 -70 42 -97 41 -23 0 -29 2 -18 6 15 5 11 10 -20 23
-21 10 -63 22 -93 29 -30 6 -61 16 -69 22 -14 12 -368 12 -426 1 -17 -4 -26
-3 -22 2 5 5 75 12 155 15 l147 6 -163 0 c-89 0 -165 3 -168 6 -4 3 8 26 25
51 28 43 24 67 -5 29 -10 -14 -13 -15 -14 -4 0 8 7 22 16 32 9 11 11 19 5 23
-5 4 -15 -3 -21 -14 -6 -11 -16 -20 -22 -20 -7 0 -6 5 2 15 11 13 2 15 -74 15
-78 0 -86 -2 -86 -19 0 -24 -15 -35 -37 -27 -11 5 -13 10 -4 20 14 16 4 26
-25 26 -12 0 -25 6 -27 13 -4 10 -6 10 -6 0 -2 -23 -19 -14 -29 15 -10 26 -11
27 -17 5z m97 -55 c-8 -8 -8 -15 -1 -24 18 -22 -8 -24 -27 -2 -11 12 -14 18
-8 15 7 -4 17 0 24 8 7 8 15 15 18 15 3 0 1 -5 -6 -12z m221 -59 c4 -3 2 -11
-5 -17 -10 -8 -13 -5 -14 15 -1 13 1 21 5 16 3 -4 10 -10 14 -14z m-358 -113
c0 -35 -3 -59 -7 -53 -14 22 -9 117 6 117 1 0 1 -29 1 -64z m970 -19 c14 -11
15 -16 5 -22 -9 -5 -11 -4 -6 3 5 8 0 12 -13 12 -11 0 -23 5 -26 10 -9 15 18
12 40 -3z m130 -65 c-3 -3 -11 0 -18 7 -9 10 -8 11 6 5 10 -3 15 -9 12 -12z
m-1088 -14 c-3 -8 -6 -5 -6 6 -1 11 2 17 5 13 3 -3 4 -12 1 -19z m1063 8 c0
-3 -4 -8 -10 -11 -5 -3 -10 -1 -10 4 0 6 5 11 10 11 6 0 10 -2 10 -4z"/>
<path d="M10980 7465 c7 -9 15 -13 17 -11 7 7 -7 26 -19 26 -6 0 -6 -6 2 -15z"/>
<path d="M11382 7455 c-7 -14 -12 -36 -13 -48 -1 -20 -2 -20 -8 3 -6 24 -11
25 -84 28 -49 2 -77 -1 -77 -8 0 -13 -87 -13 -95 0 -3 6 -13 10 -22 10 -14 0
-13 -4 4 -22 24 -27 34 -65 24 -92 -6 -15 -10 -16 -16 -7 -4 8 -2 17 6 22 7 4
10 11 6 16 -5 4 -12 1 -18 -7 -7 -11 -8 -8 -4 11 7 28 -8 46 -38 46 -15 0 -15
-3 5 -24 13 -14 22 -27 20 -29 -1 -2 5 -20 13 -40 8 -20 15 -42 16 -48 1 -6 4
0 8 14 4 14 7 -42 6 -125 -1 -164 -6 -184 -70 -281 -157 -238 -486 -271 -697
-71 -63 60 -117 162 -126 234 -5 39 -7 43 -12 23 -4 -14 -6 7 -6 47 1 39 4 66
7 61 6 -9 16 52 19 114 1 9 8 22 16 29 8 6 14 16 14 21 0 5 11 26 25 46 30 44
32 62 6 62 -14 0 -18 -5 -14 -19 2 -10 -5 -36 -16 -57 -25 -46 -28 -27 -4 23
14 30 14 36 2 44 -10 6 -16 2 -21 -14 l-6 -22 -1 23 c-1 22 -2 22 -166 22
l-165 0 0 -35 c0 -28 -4 -35 -19 -35 -27 0 -30 -14 -30 -152 -1 -220 22 -338
91 -473 107 -209 327 -375 563 -426 77 -16 243 -16 320 0 192 42 382 161 494
311 14 19 29 37 33 40 7 6 43 76 78 155 13 28 23 69 24 92 1 22 4 36 8 31 9
-16 23 116 21 210 -2 66 -6 89 -23 112 -12 17 -19 38 -17 48 4 13 5 12 6 -5 0
-12 6 -25 13 -29 7 -5 9 -2 5 9 -3 8 -9 33 -13 54 -4 21 -15 53 -25 72 -16 29
-19 32 -25 16 -5 -12 -1 -24 14 -36 31 -24 27 -34 -13 -35 -26 0 -32 3 -25 12
6 6 9 26 8 45 -1 19 3 34 10 37 14 4 17 22 4 22 -5 0 -14 -11 -20 -25z m-1255
-105 c1 -11 -2 -20 -6 -20 -5 0 -11 9 -14 20 -3 12 0 20 7 20 6 0 12 -9 13
-20z m1340 -142 c-3 -8 -6 -5 -6 6 -1 11 2 17 5 13 3 -3 4 -12 1 -19z m-20
-40 c-3 -7 -5 -2 -5 12 0 14 2 19 5 13 2 -7 2 -19 0 -25z m20 -40 c-3 -7 -5
-2 -5 12 0 14 2 19 5 13 2 -7 2 -19 0 -25z m-1280 -50 c-3 -8 -6 -5 -6 6 -1
11 2 17 5 13 3 -3 4 -12 1 -19z"/>
<path d="M15280 7470 c0 -5 5 -10 11 -10 5 0 7 5 4 10 -3 6 -8 10 -11 10 -2 0
-4 -4 -4 -10z"/>
<path d="M10320 7439 c0 -5 5 -7 10 -4 6 3 10 8 10 11 0 2 -4 4 -10 4 -5 0
-10 -5 -10 -11z"/>
<path d="M15230 7437 c0 -2 8 -21 19 -42 11 -23 21 -33 25 -26 10 15 -15 71
-31 71 -7 0 -13 -1 -13 -3z"/>
<path d="M14097 7423 c-11 -11 -8 -41 6 -49 6 -4 9 -4 5 1 -4 4 -2 15 5 23 10
13 9 14 -2 7 -11 -6 -13 -4 -8 8 7 18 5 21 -6 10z"/>
<path d="M16018 6886 c-42 -31 -8 -96 50 -96 38 0 62 23 62 60 0 46 -70 68
-112 36z"/>
<path d="M16552 6861 c-10 -6 -13 -30 -12 -87 3 -112 3 -110 -17 -92 -92 76
-261 25 -292 -88 -27 -96 -9 -181 48 -235 66 -61 186 -74 240 -25 23 21 31 20
31 -4 0 -17 7 -20 50 -20 l50 0 0 280 0 280 -42 0 c-24 0 -49 -4 -56 -9z m-41
-259 c25 -23 32 -36 34 -77 4 -62 -15 -101 -59 -122 -96 -45 -184 43 -154 154
20 74 119 99 179 45z"/>
<path d="M16058 6712 l-48 -3 0 -200 0 -199 55 0 55 0 0 199 c0 110 -3 201 -7
203 -5 2 -29 2 -55 0z"/>
<path d="M15800 6420 c-51 -51 11 -142 73 -108 52 27 61 75 21 107 -34 26 -68
27 -94 1z"/>
</g>
</svg>
